<?xml version="1.0" standalone="no"?>
<!DOCTYPE svg PUBLIC "-//W3C//DTD SVG 20010904//EN"
 "http://www.w3.org/TR/2001/REC-SVG-20010904/DTD/svg10.dtd">
<svg version="1.0" xmlns="http://www.w3.org/2000/svg"
 width="920.000000pt" height="512.000000pt" viewBox="0 0 920.000000 512.000000"
 preserveAspectRatio="xMidYMid meet">

<g transform="translate(0.000000,512.000000) scale(0.100000,-0.100000)"
fill="#000000" stroke="none">
<path d="M4410 4874 c-290 -53 -555 -224 -708 -459 -55 -84 -64 -121 -34 -148
17 -16 96 -17 934 -17 874 0 916 1 931 18 28 30 20 64 -35 147 -93 143 -252
281 -417 365 -190 95 -457 133 -671 94z"/>
<path d="M3270 3989 c-141 -18 -263 -98 -334 -218 -34 -59 -66 -163 -66 -216
0 -27 -16 -13 -182 152 -233 231 -275 253 -384 198 -65 -33 -97 -80 -102 -154
-3 -44 1 -67 16 -97 12 -22 159 -177 336 -354 l316 -315 0 -337 0 -337 -353
-3 -354 -3 -34 -24 c-134 -91 -107 -291 44 -336 41 -12 115 -15 374 -15 l323
0 0 -43 c0 -108 33 -299 77 -446 l25 -84 -376 -376 c-206 -207 -380 -389 -386
-404 -24 -67 -3 -164 47 -209 51 -46 148 -61 206 -32 18 9 180 163 360 342
268 267 330 324 337 311 71 -124 311 -365 464 -468 203 -135 426 -229 647
-272 125 -24 161 -24 182 -1 16 17 17 161 17 1863 0 1014 -4 1849 -8 1856 -4
6 -19 16 -32 21 -29 11 -1076 12 -1160 1z"/>
<path d="M4770 3989 c-13 -6 -28 -15 -32 -22 -4 -7 -8 -843 -8 -1858 0 -1776
1 -1847 18 -1862 24 -22 59 -21 181 2 221 43 444 137 647 272 153 103 393 344
464 468 7 13 70 -45 342 -316 183 -183 346 -337 361 -343 45 -16 114 -12 157
10 95 48 134 176 80 260 -5 8 -176 182 -380 386 l-371 372 21 68 c36 119 60
243 72 376 l12 128 321 0 c200 0 335 4 360 11 161 44 194 246 56 340 l-34 24
-354 3 -353 3 0 337 0 337 316 315 c177 177 324 332 336 354 15 30 19 53 16
97 -5 74 -37 121 -102 154 -109 55 -151 33 -383 -198 -167 -165 -183 -179
-183 -152 0 53 -32 157 -66 216 -35 59 -115 139 -168 166 -16 8 -54 24 -85 36
-54 19 -79 20 -636 23 -351 1 -590 -2 -605 -7z"/>
</g>
</svg>
