<?xml version="1.0" standalone="no"?>
<!DOCTYPE svg PUBLIC "-//W3C//DTD SVG 20010904//EN"
 "http://www.w3.org/TR/2001/REC-SVG-20010904/DTD/svg10.dtd">
<svg version="1.0" xmlns="http://www.w3.org/2000/svg"
 width="360.000000pt" height="324.000000pt" viewBox="0 0 360.000000 324.000000"
 preserveAspectRatio="xMidYMid meet">

<g transform="translate(0.000000,324.000000) scale(0.100000,-0.100000)"
fill="#000000" stroke="none">
<path d="M1791 3134 c-20 -14 -21 -24 -21 -173 0 -165 4 -181 45 -181 47 0 55
25 55 181 0 148 -5 169 -41 182 -9 3 -26 -1 -38 -9z"/>
<path d="M1168 2978 c-32 -26 -27 -46 38 -160 93 -161 90 -158 124 -158 23 0
33 6 42 25 10 22 3 38 -62 152 -71 125 -92 153 -115 153 -6 0 -18 -6 -27 -12z"/>
<path d="M2402 2958 c-6 -7 -42 -69 -82 -137 -74 -130 -82 -163 -40 -176 38
-12 56 6 128 129 71 123 83 161 60 184 -16 16 -53 15 -66 0z"/>
<path d="M1635 2560 c-126 -34 -230 -95 -325 -190 -138 -138 -206 -283 -217
-466 -11 -182 51 -344 205 -534 75 -91 89 -136 133 -397 43 -257 47 -274 90
-333 l29 -40 0 -180 0 -179 32 -9 c23 -6 38 -19 53 -47 30 -59 90 -88 179 -88
100 0 164 34 191 101 6 15 24 29 45 36 l35 11 3 185 c2 163 5 187 21 205 39
42 53 93 92 328 44 265 63 323 134 407 65 77 132 187 166 273 29 72 33 96 37
199 4 104 1 127 -22 210 -59 205 -186 358 -380 455 -145 73 -347 95 -501 53z
m260 -180 c159 -22 323 -141 394 -284 46 -95 68 -210 54 -292 -14 -82 -69
-193 -134 -274 -66 -81 -113 -158 -139 -229 -12 -30 -39 -160 -61 -290 -49
-295 -40 -281 -191 -281 -153 0 -144 -13 -192 275 -51 305 -72 363 -191 510
-31 39 -75 107 -97 153 -36 72 -42 93 -46 166 -8 147 36 270 134 375 89 96
186 150 307 170 71 12 82 12 162 1z m-50 -1847 c61 2 117 6 125 8 11 3 16 -5
18 -29 3 -27 -1 -34 -25 -43 -32 -13 -220 -17 -275 -6 -36 8 -38 10 -38 46 l0
39 43 -10 c23 -5 92 -8 152 -5z m-25 -178 c25 0 73 3 108 7 l63 8 -3 -27 c-3
-24 -9 -29 -43 -35 -49 -8 -219 -8 -260 1 -23 5 -31 12 -33 33 l-3 28 63 -8
c35 -4 83 -7 108 -7z"/>
<path d="M695 2516 c-13 -19 -14 -29 -6 -45 15 -26 252 -161 284 -161 30 0 51
30 42 60 -6 20 -260 170 -288 170 -9 0 -24 -11 -32 -24z"/>
<path d="M2741 2436 c-69 -40 -129 -80 -135 -89 -16 -25 8 -67 39 -67 14 0 83
33 153 74 107 62 128 78 130 101 4 32 -13 55 -42 55 -11 -1 -77 -34 -145 -74z"/>
<path d="M526 1904 c-21 -21 -20 -47 2 -67 16 -14 43 -17 169 -17 133 0 152 2
166 18 22 24 21 45 -1 65 -27 24 -312 25 -336 1z"/>
<path d="M2740 1870 c-25 -25 -25 -42 -2 -63 16 -14 43 -17 173 -17 163 0 179
4 179 45 0 47 -25 55 -183 55 -134 0 -149 -2 -167 -20z"/>
<path d="M802 1357 c-90 -53 -124 -78 -129 -96 -8 -31 8 -55 38 -58 27 -3 265
131 282 159 8 12 7 24 -1 42 -18 41 -54 32 -190 -47z"/>
<path d="M2603 1392 c-11 -7 -16 -25 -14 -53 1 -18 255 -169 284 -169 26 0 51
44 38 69 -13 23 -250 161 -277 161 -11 0 -24 -4 -31 -8z"/>
</g>
</svg>
