<?xml version="1.0" standalone="no"?>
<!DOCTYPE svg PUBLIC "-//W3C//DTD SVG 20010904//EN"
 "http://www.w3.org/TR/2001/REC-SVG-20010904/DTD/svg10.dtd">
<svg version="1.0" xmlns="http://www.w3.org/2000/svg"
 width="292.000000pt" height="172.000000pt" viewBox="0 0 292.000000 172.000000"
 preserveAspectRatio="xMidYMid meet">

<g transform="translate(0.000000,172.000000) scale(0.100000,-0.100000)"
fill="#000000" stroke="none">
<path d="M1408 1556 c-75 -26 -114 -51 -175 -110 l-43 -40 -44 21 c-101 50
-257 55 -369 13 -127 -48 -248 -175 -284 -300 -17 -56 -19 -58 -68 -74 -210
-66 -353 -303 -315 -525 18 -105 67 -196 144 -269 100 -93 196 -131 331 -132
85 0 156 18 230 58 47 26 61 29 88 21 36 -10 170 -10 207 0 18 5 36 -1 72 -25
86 -58 151 -77 263 -78 118 -1 188 17 266 70 29 19 60 33 68 30 9 -2 45 -17
81 -32 88 -38 233 -40 325 -6 47 17 72 21 115 16 72 -8 180 16 260 56 175 88
283 300 251 492 -32 191 -170 344 -356 393 -33 8 -72 15 -89 15 -20 0 -42 13
-76 44 -61 57 -134 94 -224 112 -39 9 -71 16 -72 17 -73 125 -192 218 -315
246 -80 19 -197 13 -271 -13z m226 -16 c123 -20 246 -102 307 -204 31 -52 31
-52 100 -63 88 -14 164 -51 233 -114 46 -42 60 -49 94 -49 22 0 68 -9 103 -20
221 -68 352 -301 294 -523 -22 -83 -50 -133 -113 -199 -93 -98 -220 -146 -355
-135 -54 5 -76 2 -114 -15 -102 -45 -262 -33 -372 28 l-45 25 -43 -31 c-81
-59 -150 -84 -245 -88 -107 -5 -198 19 -279 76 -47 33 -59 37 -84 30 -42 -12
-183 -12 -224 1 -28 9 -38 7 -62 -10 -81 -58 -204 -85 -309 -68 -308 48 -471
378 -323 652 50 91 181 190 279 211 27 6 33 13 39 44 17 95 112 227 203 282
116 70 291 80 412 24 l66 -31 59 55 c65 60 158 109 232 122 68 11 81 11 147 0z"/>
</g>
</svg>
